<svg width="25" height="25" viewBox="0 0 25 25" fill="none" xmlns="http://www.w3.org/2000/svg">
<path d="M13.5276 2.97096C14.2573 2.96816 14.9871 2.97549 15.7166 2.99296L15.9106 2.99996C16.1346 3.00796 16.3556 3.01796 16.6226 3.02996C17.6866 3.07996 18.4126 3.24796 19.0496 3.49496C19.7096 3.74896 20.2656 4.09296 20.8216 4.64896C21.33 5.14856 21.7234 5.7529 21.9746 6.41996C22.2216 7.05696 22.3896 7.78396 22.4396 8.84796C22.4516 9.11396 22.4616 9.33596 22.4696 9.55996L22.4756 9.75396C22.4934 10.4831 22.501 11.2126 22.4986 11.942L22.4996 12.688V13.998C22.5021 14.7277 22.4944 15.4574 22.4766 16.187L22.4706 16.381C22.4626 16.605 22.4526 16.826 22.4406 17.093C22.3906 18.157 22.2206 18.883 21.9746 19.52C21.7242 20.1877 21.3307 20.7926 20.8216 21.292C20.3216 21.8003 19.7169 22.1937 19.0496 22.445C18.4126 22.692 17.6866 22.86 16.6226 22.91C16.3556 22.922 16.1346 22.932 15.9106 22.94L15.7166 22.946C14.9871 22.9637 14.2573 22.9714 13.5276 22.969L12.7816 22.97H11.4726C10.7429 22.9724 10.0131 22.9648 9.2836 22.947L9.0896 22.941C8.85221 22.9324 8.61487 22.9224 8.3776 22.911C7.3136 22.861 6.5876 22.691 5.9496 22.445C5.28228 22.1943 4.67784 21.8008 4.1786 21.292C3.66965 20.7922 3.27582 20.1875 3.0246 19.52C2.7776 18.883 2.6096 18.157 2.5596 17.093C2.54846 16.8557 2.53846 16.6183 2.5296 16.381L2.5246 16.187C2.50616 15.4574 2.49783 14.7277 2.4996 13.998V11.942C2.49681 11.2126 2.50414 10.4832 2.5216 9.75396L2.5286 9.55996C2.5366 9.33596 2.5466 9.11396 2.5586 8.84796C2.6086 7.78296 2.7766 7.05796 3.0236 6.41996C3.27497 5.75258 3.66956 5.1484 4.1796 4.64996C4.67849 4.14071 5.28256 3.74653 5.9496 3.49496C6.5876 3.24796 7.3126 3.07996 8.3776 3.02996L9.0896 2.99996L9.2836 2.99496C10.0128 2.97653 10.7422 2.9682 11.4716 2.96996L13.5276 2.97096ZM12.4996 7.97096C11.8371 7.96159 11.1794 8.08398 10.5646 8.33102C9.9498 8.57807 9.39025 8.94484 8.91845 9.41001C8.44664 9.87519 8.072 10.4295 7.81629 11.0407C7.56057 11.6519 7.42889 12.3079 7.42889 12.9705C7.42889 13.633 7.56057 14.289 7.81629 14.9002C8.072 15.5114 8.44664 16.0657 8.91845 16.5309C9.39025 16.9961 9.9498 17.3628 10.5646 17.6099C11.1794 17.8569 11.8371 17.9793 12.4996 17.97C13.8257 17.97 15.0975 17.4432 16.0351 16.5055C16.9728 15.5678 17.4996 14.296 17.4996 12.97C17.4996 11.6439 16.9728 10.3721 16.0351 9.43442C15.0975 8.49674 13.8257 7.97096 12.4996 7.97096ZM12.4996 9.97096C12.8981 9.96361 13.2941 10.0358 13.6644 10.1832C14.0347 10.3306 14.3719 10.5503 14.6564 10.8295C14.9408 11.1087 15.1668 11.4418 15.321 11.8093C15.4753 12.1768 15.5548 12.5714 15.5549 12.9699C15.5549 13.3685 15.4756 13.7631 15.3214 14.1307C15.1673 14.4982 14.9414 14.8314 14.6571 15.1107C14.3727 15.39 14.0356 15.6098 13.6653 15.7574C13.2951 15.9049 12.8991 15.9772 12.5006 15.97C11.705 15.97 10.9419 15.6539 10.3793 15.0913C9.81667 14.5287 9.5006 13.7656 9.5006 12.97C9.5006 12.1743 9.81667 11.4112 10.3793 10.8486C10.9419 10.286 11.705 9.96996 12.5006 9.96996L12.4996 9.97096ZM17.7496 6.47096C17.427 6.48387 17.1219 6.62111 16.8982 6.85393C16.6745 7.08675 16.5496 7.39709 16.5496 7.71996C16.5496 8.04282 16.6745 8.35316 16.8982 8.58599C17.1219 8.81881 17.427 8.95604 17.7496 8.96896C18.0811 8.96896 18.3991 8.83726 18.6335 8.60284C18.8679 8.36842 18.9996 8.05048 18.9996 7.71896C18.9996 7.38744 18.8679 7.06949 18.6335 6.83507C18.3991 6.60065 18.0811 6.46896 17.7496 6.46896V6.47096Z" fill="#532822"/>
</svg>
