<svg width="40" height="40" viewBox="0 0 40 40" fill="none" xmlns="http://www.w3.org/2000/svg">
<rect x="12" y="12" width="16" height="17" fill="#532822"/>
<path d="M35.9335 17.9009L33.6668 15.2676C33.2335 14.7676 32.8835 13.8342 32.8835 13.1676V10.3342C32.8835 8.56758 31.4335 7.11758 29.6668 7.11758H26.8335C26.1835 7.11758 25.2335 6.76758 24.7335 6.33424L22.1001 4.06758C20.9501 3.08424 19.0668 3.08424 17.9001 4.06758L15.2835 6.35091C14.7835 6.76758 13.8335 7.11758 13.1835 7.11758H10.3001C8.53346 7.11758 7.08346 8.56758 7.08346 10.3342V13.1842C7.08346 13.8342 6.73346 14.7676 6.3168 15.2676L4.0668 17.9176C3.10013 19.0676 3.10013 20.9342 4.0668 22.0842L6.3168 24.7342C6.73346 25.2342 7.08346 26.1676 7.08346 26.8176V29.6676C7.08346 31.4342 8.53346 32.8842 10.3001 32.8842H13.1835C13.8335 32.8842 14.7835 33.2342 15.2835 33.6676L17.9168 35.9342C19.0668 36.9176 20.9501 36.9176 22.1168 35.9342L24.7501 33.6676C25.2501 33.2342 26.1835 32.8842 26.8501 32.8842H29.6835C31.4501 32.8842 32.9001 31.4342 32.9001 29.6676V26.8342C32.9001 26.1842 33.2501 25.2342 33.6835 24.7342L35.9501 22.1009C36.9168 20.9509 36.9168 19.0509 35.9335 17.9009ZM26.9335 16.8509L18.8835 24.9009C18.6501 25.1342 18.3335 25.2676 18.0001 25.2676C17.6668 25.2676 17.3501 25.1342 17.1168 24.9009L13.0835 20.8676C12.6001 20.3842 12.6001 19.5842 13.0835 19.1009C13.5668 18.6176 14.3668 18.6176 14.8501 19.1009L18.0001 22.2509L25.1668 15.0842C25.6501 14.6009 26.4501 14.6009 26.9335 15.0842C27.4168 15.5676 27.4168 16.3676 26.9335 16.8509Z" fill="#FFD25A"/>
</svg>
